<svg width="161" height="104" viewBox="0 0 161 104" fill="none" xmlns="http://www.w3.org/2000/svg">
<path d="M12.1627 56.9135C4.88606 56.9135 0 51.7716 0 44.1873C0 35.0491 7.176 29.1956 18.5739 29.1956C20.2026 29.1956 21.6272 29.2847 22.7973 29.5392V28.4826C22.7973 23.2904 20.8883 20.7963 17.0214 20.7963C13.9682 20.7963 11.9571 22.4897 11.0414 25.7341C10.787 26.6628 10.2781 27.1084 9.41275 26.956L2.33881 25.7341C1.47344 25.5818 1.01631 24.8688 1.27075 23.9013C3.15387 16.7368 9.05625 12.7521 17.7589 12.7521C28.0887 12.7521 33.5858 18.4532 33.5858 29.0806V54.6739C33.5858 55.4372 33.0266 55.9978 32.2618 55.9978H25.5444C24.7552 55.9978 24.2981 55.4889 24.1198 54.6739L23.1021 49.8884H22.6953C20.8639 54.3044 17.2011 56.9135 12.1627 56.9135ZM16.284 48.8707C20.5074 48.8707 22.7973 45.0024 22.7973 37.9256V35.2403C21.9319 35.0879 21.0162 34.9859 20.1006 34.9859C14.5532 34.9859 11.0932 38.0779 11.0932 42.9654C11.0932 46.5793 13.1301 48.8707 16.284 48.8707ZM41.4201 0H49.5621C50.3254 0 50.8861 0.560625 50.8861 1.32394V54.6739C50.8861 55.4372 50.3269 55.9978 49.5621 55.9978H41.4201C40.6065 55.9978 40.0976 55.4372 40.0976 54.6739V1.32394C40.0962 0.560625 40.6568 0 41.4201 0ZM74.4956 12.7521C84.8772 12.7521 92.0532 21.7623 92.0532 34.5144V36.6519C92.0532 37.467 91.494 37.9759 90.7293 37.9759H67.3842C67.8931 44.8989 70.2219 48.4121 74.4956 48.4121C77.6509 48.4121 80.0932 46.9358 81.0089 43.0157C81.213 42.1504 81.7219 41.8197 82.5355 41.998L90.0666 43.6784C90.9319 43.8696 91.2884 44.4417 90.9822 45.3071C88.3876 52.8411 82.4837 56.9135 74.4941 56.9135C63.6036 56.9135 56.0726 48.1074 56.0726 35.1253C56.0726 22.1706 63.7057 12.7521 74.4956 12.7521ZM81.0592 30.8502C80.4224 24.5755 78.2733 21.2549 74.4941 21.2549C70.8429 21.2549 68.2467 24.6661 67.4964 30.8502H81.0592ZM93.1687 53.7064L102.481 34.4123L93.6258 15.9591C93.0911 14.8393 93.8299 13.6678 95.1021 13.6678H103.142C103.601 13.6678 104.058 13.9222 104.262 14.3807L109.3 26.5736H109.707L114.848 14.3807C115.026 13.9739 115.459 13.6678 115.916 13.6678H123.701C124.973 13.6678 125.711 14.8393 125.178 15.9591L116.322 34.4123L125.635 53.7064C126.169 54.8263 125.431 55.9978 124.158 55.9978H116.373C115.712 55.9978 115.279 55.6931 115.101 55.2848L109.401 42.1504H108.994L103.447 55.2848C103.243 55.7434 102.836 55.9978 102.379 55.9978H94.645C93.3728 55.9978 92.6339 54.8263 93.1687 53.7064ZM139.576 56.9135C132.299 56.9135 127.413 51.7716 127.413 44.1873C127.413 35.0491 134.589 29.1956 145.987 29.1956C147.615 29.1956 149.04 29.2847 150.21 29.5392V28.4826C150.21 23.2904 148.301 20.7963 144.434 20.7963C141.381 20.7963 139.37 22.4897 138.454 25.7341C138.2 26.6628 137.691 27.1084 136.826 26.956L129.752 25.7341C128.886 25.5818 128.429 24.8688 128.684 23.9013C130.567 16.7368 136.469 12.7521 145.172 12.7521C155.502 12.7521 160.999 18.4532 160.999 29.0806V54.6739C160.999 55.4372 160.439 55.9978 159.675 55.9978H152.957C152.168 55.9978 151.711 55.4889 151.533 54.6739L150.515 49.8884H150.108C148.278 54.3044 144.614 56.9135 139.576 56.9135ZM143.698 48.8707C147.922 48.8707 150.212 45.0024 150.212 37.9256V35.2403C149.346 35.0879 148.431 34.9859 147.515 34.9859C141.968 34.9859 138.507 38.0779 138.507 42.9654C138.507 46.5793 140.543 48.8707 143.698 48.8707ZM125.85 74.0054C126.361 75.1741 127.834 75.1755 130.124 74.7169C136.229 73.3944 143.963 73.2924 145.285 75.1237C146.557 77.0054 143.759 84.2274 140.452 89.5146C139.232 91.5486 138.723 92.8208 139.741 93.7868C139.995 94.0916 140.352 94.1936 140.759 94.2439C141.979 94.2439 143.557 93.0235 145.032 91.6507C148.238 88.8533 150.73 85.2941 152.105 81.2763C153.478 77.4108 154.14 71.9699 152.716 69.8855C151.341 67.9018 146 66.5793 141.878 66.631C137.554 66.631 133.381 67.6991 129.616 69.6828C127.275 70.9536 125.14 72.3767 125.85 74.0054ZM12.949 71.8692C13.2998 72.9387 14.1191 74.2598 15.3396 75.785C30.9609 95.059 56.0941 103.5 80.3634 103.5C101.581 103.5 122.085 97.0931 135.109 85.8029C137.347 83.8192 138.518 82.2437 138.518 81.0232C138.518 80.5144 138.315 80.1076 137.958 79.7008C136.84 78.5306 135.16 79.396 133.125 80.4641C121.016 86.8207 102.395 91.1936 82.6016 91.1936C60.2658 91.1936 36.3529 85.6506 18.239 71.0556C16.5097 69.6828 14.6266 68.31 13.3544 69.3263C12.8987 69.6828 12.4833 70.4476 12.949 71.8692Z" fill="#F5F5F5"/>
</svg>
