<svg width="17" height="16" viewBox="0 0 17 16" fill="none" xmlns="http://www.w3.org/2000/svg">
<path d="M7.56249 13V4.20923L3.41649 8.36566L2.70849 7.65942L7.70849 2.64691L7.72649 2.62976C7.81826 2.54647 7.93797 2.5 8.06249 2.5C8.19532 2.5 8.32269 2.55287 8.41649 2.64691L13.4165 7.65942C13.6115 7.85493 13.6111 8.1715 13.4156 8.36652C13.2201 8.56153 12.9035 8.56116 12.7085 8.36566L8.56249 4.20923V13C8.56249 13.2761 8.33863 13.5 8.06249 13.5C7.78635 13.5 7.56249 13.2761 7.56249 13ZM3.41649 8.36566C3.22148 8.56116 2.90491 8.56153 2.7094 8.36652C2.5139 8.1715 2.51347 7.85493 2.70849 7.65942L3.41649 8.36566Z" fill="white"/>
</svg>
