<svg width="16" height="16" viewBox="0 0 16 16" fill="none" xmlns="http://www.w3.org/2000/svg">
<path d="M2.24976 8.11806C2.24976 7.84192 2.47362 7.61806 2.74976 7.61806H11.1942V9.25697C11.1942 11.7269 9.19192 13.7291 6.72198 13.7291C4.25206 13.7291 2.24977 11.7269 2.24976 9.25697V8.11806ZM1.24976 9.25697C1.24977 12.2792 3.69977 14.7291 6.72198 14.7291C9.7442 14.7291 12.1942 12.2792 12.1942 9.25697V6.61806H2.74976C1.92133 6.61806 1.24976 7.28963 1.24976 8.11806V9.25697Z" fill="#FB008B"/>
<path d="M12.1942 10.1736V7.61806H12.472C13.1777 7.61806 13.7498 8.19013 13.7498 8.89583C13.7498 9.60152 13.1777 10.1736 12.472 10.1736H12.1942ZM12.472 11.1736C13.73 11.1736 14.7498 10.1538 14.7498 8.89583C14.7498 7.63785 13.73 6.61806 12.472 6.61806H11.1942V11.1736H12.472Z" fill="#FB008B"/>
<path d="M3.91644 5.34027V1.8125C3.91644 1.53636 4.14029 1.3125 4.41644 1.3125C4.69258 1.3125 4.91644 1.53636 4.91644 1.8125V5.34027L4.91576 5.36603C4.90236 5.6302 4.68394 5.84027 4.41644 5.84027C4.14893 5.84027 3.93051 5.6302 3.91711 5.36603L3.91644 5.34027Z" fill="#FB008B"/>
<path d="M8.36088 5.3403V2.67361C8.36088 2.39747 8.58474 2.17361 8.86088 2.17361C9.13702 2.17361 9.36088 2.39747 9.36088 2.67361V5.3403C9.36087 5.61643 9.13702 5.8403 8.86088 5.8403C8.58474 5.8403 8.36089 5.61643 8.36088 5.3403Z" fill="#FB008B"/>
<path d="M6.13866 5.34029V3.64583C6.13866 3.36969 6.36252 3.14583 6.63866 3.14583C6.9148 3.14583 7.13866 3.36969 7.13866 3.64583V5.34029C7.13865 5.61643 6.9148 5.84029 6.63866 5.84029C6.36252 5.84029 6.13867 5.61643 6.13866 5.34029Z" fill="#FB008B"/>
</svg>
