<svg width="24" height="24" viewBox="0 0 24 24" fill="none" xmlns="http://www.w3.org/2000/svg">
<path d="M12.0368 24H11.984C5.38375 24 0.013916 18.6286 0.013916 12.0264V11.9736C0.013916 5.37142 5.38375 0 11.984 0H12.0368C18.637 0 24.0069 5.37142 24.0069 11.9736V12.0264C24.0069 18.6286 18.637 24 12.0368 24ZM11.984 0.812375C5.83124 0.812375 0.826052 5.81904 0.826052 11.9736V12.0264C0.826052 18.181 5.83124 23.1876 11.984 23.1876H12.0368C18.1895 23.1876 23.1947 18.181 23.1947 12.0264V11.9736C23.1947 5.81904 18.1895 0.812375 12.0368 0.812375H11.984Z" fill="white"/>
<path d="M17.8111 6.67695C16.7439 6.18709 15.6004 5.82639 14.4042 5.62005C14.3822 5.61599 14.3603 5.62574 14.3497 5.64605C14.2027 5.90763 14.0395 6.24964 13.9258 6.51773C12.6394 6.32519 11.3595 6.32519 10.099 6.51773C9.98451 6.24314 9.81558 5.90763 9.66777 5.64605C9.6564 5.62655 9.63448 5.6168 9.61337 5.62005C8.4179 5.82639 7.27361 6.18709 6.20646 6.67695C6.19752 6.68101 6.1894 6.68751 6.18372 6.69644C4.01369 9.93945 3.41919 13.1028 3.71075 16.2272C3.71237 16.2427 3.72049 16.2573 3.73267 16.2662C5.16447 17.3183 6.55162 17.9568 7.91276 18.38C7.93468 18.3865 7.95742 18.3784 7.97123 18.3605C8.29283 17.921 8.58033 17.4572 8.82641 16.9689C8.84103 16.9405 8.8264 16.9064 8.79716 16.895C8.34156 16.722 7.90868 16.5116 7.49124 16.2727C7.45795 16.2532 7.45552 16.2061 7.48557 16.1834C7.57328 16.1176 7.66099 16.0493 7.74464 15.9803C7.76007 15.9673 7.78118 15.9648 7.79905 15.973C10.5384 17.224 13.5043 17.224 16.2112 15.973C16.229 15.964 16.2501 15.9673 16.2656 15.9795C16.3492 16.0485 16.4369 16.1176 16.5254 16.1834C16.5555 16.2061 16.5539 16.2532 16.5206 16.2727C16.104 16.5164 15.6703 16.7228 15.2139 16.895C15.1838 16.9064 15.1708 16.9405 15.1854 16.9697C15.4372 17.4572 15.7239 17.9202 16.0398 18.3605C16.0528 18.3792 16.0763 18.3873 16.0983 18.3808C17.4659 17.9576 18.853 17.3191 20.2848 16.267C20.297 16.2581 20.3051 16.2435 20.3068 16.2289C20.656 12.617 19.722 9.47964 17.8322 6.69807C17.8273 6.68913 17.82 6.68182 17.8102 6.67776L17.8111 6.67695ZM9.23408 14.3247C8.40895 14.3247 7.73003 13.5675 7.73003 12.6374C7.73003 11.7072 8.39677 10.95 9.23408 10.95C10.0714 10.95 10.752 11.7145 10.7382 12.6374C10.7382 13.5675 10.0714 14.3247 9.23408 14.3247ZM14.7964 14.3247C13.9713 14.3247 13.2923 13.5675 13.2923 12.6374C13.2923 11.7072 13.9591 10.95 14.7964 10.95C15.6337 10.95 16.3143 11.7145 16.3005 12.6374C16.3005 13.5675 15.641 14.3247 14.7964 14.3247Z" fill="white"/>
</svg>
