<svg width="25" height="24" viewBox="0 0 25 24" fill="none" xmlns="http://www.w3.org/2000/svg">
<path d="M12.058 24H12.0052C5.40501 24 0.0351562 18.6286 0.0351562 12.0264V11.9736C0.0351562 5.37143 5.40501 0 12.0052 0H12.058C18.6582 0 24.0281 5.37143 24.0281 11.9736V12.0264C24.0281 18.6286 18.6582 24 12.058 24ZM12.0052 0.812375C5.85249 0.812375 0.847292 5.81905 0.847292 11.9736V12.0264C0.847292 18.1809 5.85249 23.1876 12.0052 23.1876H12.058C18.2108 23.1876 23.216 18.1809 23.216 12.0264V11.9736C23.216 5.81905 18.2108 0.812375 12.058 0.812375H12.0052Z" fill="white"/>
<path d="M17.782 10C17.782 8.64086 16.6974 7.53501 15.3465 7.50079L15.282 7.5H8.78201C7.40129 7.5 6.28201 8.61929 6.28201 10V14C6.28201 15.3807 7.40129 16.5 8.78201 16.5H15.282C16.6627 16.5 17.782 15.3807 17.782 14V10ZM18.782 14C18.782 15.933 17.215 17.5 15.282 17.5H8.78201C6.84901 17.5 5.28201 15.933 5.28201 14V10C5.28201 8.067 6.84901 6.5 8.78201 6.5H15.282L15.3272 6.50031C17.2394 6.52452 18.782 8.0821 18.782 10V14Z" fill="white"/>
<path d="M16.8972 7.39642C17.0924 7.20116 17.4091 7.20116 17.6043 7.39642C17.7996 7.59169 17.7996 7.90831 17.6043 8.10358L15.3485 10.3594L18.6356 13.6464L18.6533 13.6651C18.8306 13.8614 18.8247 14.1644 18.6356 14.3536C18.4464 14.5427 18.1434 14.5486 17.9471 14.3713L17.9284 14.3536L14.6413 11.0665L13.4462 12.2617C12.6651 13.0427 11.3989 13.0427 10.6178 12.2617L9.42263 11.0665L6.13558 14.3536C5.94032 14.5488 5.62369 14.5488 5.42843 14.3536C5.23317 14.1583 5.23317 13.8417 5.42843 13.6464L8.71548 10.3594L6.45968 8.10358L6.44198 8.0849C6.26464 7.88862 6.27052 7.58559 6.45968 7.39642C6.64884 7.20726 6.95188 7.20138 7.14816 7.37872L7.16683 7.39642L11.3249 11.5546C11.7154 11.9451 12.3486 11.9451 12.7391 11.5546L16.8972 7.39642Z" fill="white"/>
</svg>
