<svg width="17" height="16" viewBox="0 0 17 16" fill="none" xmlns="http://www.w3.org/2000/svg">
<g clip-path="url(#clip0_287_11904)">
<path d="M6.66833 1.48553C7.09921 0.155807 8.99838 0.166363 9.40594 1.51721L9.61053 2.19537L9.61944 2.22351C9.81461 2.80916 10.4927 3.08182 11.0408 2.78766L11.6882 2.44018L11.7176 2.42474C12.9542 1.79315 14.2746 3.12195 13.6467 4.35492L13.6313 4.38427L13.327 4.95288C13.0272 5.51309 13.3191 6.20719 13.9291 6.38482L14.5146 6.55529L14.5469 6.56506C15.8907 6.9865 15.88 8.90237 14.5315 9.30871L14.4991 9.31811L13.9395 9.47424C13.3189 9.64742 13.0217 10.3537 13.3316 10.9185L13.6864 11.5651L13.7023 11.5948C14.3533 12.8415 12.9959 14.1927 11.7528 13.5237L11.7232 13.5074L11.0492 13.1266C10.4899 12.8107 9.78195 13.0965 9.59881 13.7122L9.37353 14.4695C8.96653 15.8379 7.03753 15.8345 6.6264 14.4817L6.61694 14.4495L6.44372 13.8345C6.2726 13.2271 5.59031 12.9304 5.03137 13.2126L5.00488 13.2264L4.46221 13.5204C3.19537 14.2068 1.82633 12.8085 2.52685 11.5557L2.86273 10.9551C3.17344 10.3994 2.89232 9.7017 2.28961 9.513L2.26068 9.50439L1.59564 9.31732C0.208019 8.92702 0.197016 6.96214 1.58007 6.55621L2.30364 6.34381L2.33233 6.33496C2.92907 6.14081 3.20365 5.44698 2.89434 4.89526L2.59997 4.37024C1.89607 3.11471 3.27257 1.71328 4.54003 2.40716L5.0462 2.68426L5.07244 2.69812C5.62514 2.98033 6.30317 2.69467 6.48382 2.09594L6.65838 1.51721L6.66833 1.48553ZM8.44854 1.80603C8.32578 1.39922 7.75857 1.39288 7.62194 1.78698L7.61578 1.80603L7.44116 2.38476C7.07987 3.58224 5.72387 4.15356 4.61846 3.58911L4.56603 3.5614L4.05987 3.2843C3.67904 3.07581 3.25648 3.49641 3.47222 3.88122L3.7666 4.40625C4.38521 5.50967 3.8361 6.89726 2.64263 7.28558L2.58532 7.30334L1.86169 7.51574C1.44206 7.63891 1.44547 8.23627 1.86639 8.35467L2.53143 8.54174L2.58935 8.5589C3.79476 8.9363 4.35694 10.3318 3.73553 11.4431L3.39965 12.0438C3.18497 12.4277 3.60516 12.8474 3.98583 12.6412L4.5285 12.3472L4.58154 12.3195C5.69943 11.7551 7.0641 12.3485 7.40631 13.5634L7.57952 14.1783L7.58538 14.1978C7.71631 14.5989 8.29245 14.5966 8.41503 14.1845L8.64031 13.4271C9.0066 12.1956 10.4224 11.624 11.5411 12.256L12.2151 12.6368L12.2329 12.6463C12.6012 12.8347 13.006 12.4406 12.8192 12.0643L12.8097 12.0461L12.4549 11.3995C11.835 10.2698 12.4296 8.85737 13.6708 8.51104L14.2304 8.35492L14.2499 8.34906C14.6461 8.22061 14.6493 7.65443 14.2544 7.52154L14.235 7.51544L13.6496 7.34497C12.4295 6.9897 11.8457 5.60145 12.4454 4.48101L12.7496 3.91241L12.7588 3.89447C12.9389 3.52252 12.5452 3.13459 12.1788 3.31225L12.1611 3.32129L11.5137 3.66876C10.4175 4.25707 9.06134 3.71178 8.67101 2.54046L8.65313 2.48419L8.44854 1.80603Z" fill="white"/>
<path d="M9.86132 7.99609C9.86132 6.99507 9.04984 6.18359 8.04882 6.18359C7.04781 6.18359 6.23632 6.99507 6.23632 7.99609C6.23632 8.99711 7.04781 9.80859 8.04882 9.80859C9.04984 9.80859 9.86132 8.99711 9.86132 7.99609ZM10.8613 7.99609C10.8613 9.54939 9.60212 10.8086 8.04882 10.8086C6.49552 10.8086 5.23632 9.54939 5.23632 7.99609C5.23632 6.44279 6.49552 5.18359 8.04882 5.18359C9.60212 5.18359 10.8613 6.44279 10.8613 7.99609Z" fill="white"/>
</g>
<defs>
<clipPath id="clip0_287_11904">
<rect width="16" height="16" fill="white" transform="translate(0.0625)"/>
</clipPath>
</defs>
</svg>
