<svg width="25" height="24" viewBox="0 0 25 24" fill="none" xmlns="http://www.w3.org/2000/svg">
<path d="M12.0439 24H11.9911C5.39084 24 0.0209961 18.6286 0.0209961 12.0264V11.9736C0.0209961 5.37142 5.39084 0 11.9911 0H12.0439C18.6441 0 24.0139 5.37142 24.0139 11.9736V12.0264C24.0139 18.6286 18.6441 24 12.0439 24ZM11.9911 0.812375C5.83833 0.812375 0.833132 5.81904 0.833132 11.9736V12.0264C0.833132 18.181 5.83833 23.1876 11.9911 23.1876H12.0439C18.1966 23.1876 23.2018 18.181 23.2018 12.0264V11.9736C23.2018 5.81904 18.1966 0.812375 12.0439 0.812375H11.9911Z" fill="white"/>
<path d="M15.6041 5.12366H8.43135C6.44974 5.12366 4.83765 6.73622 4.83765 8.71842V15.2824C4.83765 17.2646 6.44974 18.8772 8.43135 18.8772H15.6041C17.5857 18.8772 19.1978 17.2646 19.1978 15.2824V8.71842C19.1978 6.73622 17.5857 5.12366 15.6041 5.12366ZM6.10539 8.71842C6.10539 7.43568 7.14899 6.39176 8.43135 6.39176H15.6041C16.8865 6.39176 17.9301 7.43568 17.9301 8.71842V15.2824C17.9301 16.5651 16.8865 17.609 15.6041 17.609H8.43135C7.14899 17.609 6.10539 16.5651 6.10539 15.2824V8.71842Z" fill="white"/>
<path d="M12.0178 15.3435C13.8605 15.3435 15.3606 13.8438 15.3606 11.9997C15.3606 10.1556 13.8614 8.65601 12.0178 8.65601C10.1743 8.65601 8.67505 10.1556 8.67505 11.9997C8.67505 13.8438 10.1743 15.3435 12.0178 15.3435ZM12.0178 9.92493C13.1621 9.92493 14.0928 10.8559 14.0928 12.0005C14.0928 13.1452 13.1621 14.0762 12.0178 14.0762C10.8735 14.0762 9.94279 13.1452 9.94279 12.0005C9.94279 10.8559 10.8735 9.92493 12.0178 9.92493Z" fill="white"/>
<path d="M15.6702 9.19625C16.1664 9.19625 16.5708 8.79251 16.5708 8.29534C16.5708 7.79817 16.1672 7.39441 15.6702 7.39441C15.1732 7.39441 14.7695 7.79817 14.7695 8.29534C14.7695 8.79251 15.1732 9.19625 15.6702 9.19625Z" fill="white"/>
</svg>
