<svg width="15" height="16" viewBox="0 0 15 16" fill="none" xmlns="http://www.w3.org/2000/svg">
<path d="M3.43497 12.401C1.78 16.0659 5.30493 16.9859 7.90488 14.841C8.66987 17.2459 11.5348 15.451 12.5648 13.586C14.8298 9.47607 13.9148 5.28615 13.6798 4.42117C12.0698 -1.47372 4.01996 -1.48372 2.63498 4.45117C2.30999 5.49115 2.30499 6.67112 2.12499 7.8961C2.035 8.51609 1.965 8.91108 1.73 9.56107C1.59 9.93606 1.40501 10.2661 1.10501 10.826C0.645023 11.696 0.840019 13.371 3.21997 12.501L3.44497 12.401H3.43497Z" fill="white"/>
<path d="M8.21494 6.97625C7.55495 6.97625 7.45496 6.18627 7.45496 5.71627C7.45496 5.29128 7.52995 4.95629 7.67495 4.74129C7.79995 4.5513 7.98495 4.4563 8.21494 4.4563C8.44494 4.4563 8.64493 4.5513 8.78493 4.74629C8.94493 4.96629 9.02993 5.30128 9.02993 5.71627C9.02993 6.50626 8.72493 6.97625 8.21994 6.97625H8.21494Z" fill="black"/>
<path d="M10.9298 6.97625C10.2698 6.97625 10.1698 6.18627 10.1698 5.71627C10.1698 5.29128 10.2448 4.95629 10.3898 4.74129C10.5148 4.5513 10.6998 4.4563 10.9298 4.4563C11.1598 4.4563 11.3598 4.5513 11.4998 4.74629C11.6598 4.96629 11.7448 5.30128 11.7448 5.71627C11.7448 6.50626 11.4398 6.97625 10.9348 6.97625H10.9298Z" fill="black"/>
</svg>
