<svg width="109" height="128" viewBox="0 0 109 128" fill="none" xmlns="http://www.w3.org/2000/svg">
<path d="M58.5888 2.65266e-05C78.2358 -0.0204232 98.0553 11.7831 105.373 34.7173L106.041 36.9738L106.914 40.6269C109.254 51.6382 112.734 79.3498 97.509 106.809L97.5004 106.817C93.071 114.788 84.8517 122.605 76.2261 126.079C71.864 127.836 66.2842 128.914 60.771 126.947C58.4888 126.133 56.5229 124.899 54.8492 123.354C45.8273 128.019 35.7208 129.407 27.4048 125.934C21.5536 123.49 16.9623 118.676 15.2958 111.875C14.7823 109.778 14.5978 107.604 14.6625 105.369C9.98741 104.946 5.81106 102.992 2.88719 98.7785C0.529805 95.3811 -0.0976942 91.5565 0.0118266 88.4153C0.122249 85.2516 0.991769 82.1106 2.40796 79.4486L2.43364 79.406L4.93247 74.7226C5.51396 73.5888 5.91765 72.7237 6.26746 71.8018C7.61091 68.1056 7.98561 66.0232 8.56946 62.0261L8.57802 62.0091L8.97167 59.0372C9.32157 56.1025 9.55979 53.2395 9.93013 49.9343C10.3748 45.9656 11.0023 41.6452 12.2835 37.3911C18.1268 12.7091 38.2763 0.0225324 58.5888 2.65266e-05ZM97.586 39.273C86.3916 -1.4605 30.4197 -1.53252 20.7898 39.4774C18.5304 46.6624 18.4978 54.8149 17.2469 63.2779L16.7762 66.2583C16.2989 69.0421 15.7248 71.4237 14.4999 74.7907C13.5266 77.3806 12.2377 79.6596 10.1526 83.5275L9.60494 84.7111C7.1782 90.9137 9.34111 100.735 24.8546 95.0999L26.3351 94.4442C14.8657 119.74 39.3639 126.086 57.4336 111.271C62.4201 126.848 80.234 116.922 88.3437 105.003L89.8328 102.602C103.613 77.7524 100.462 52.4769 98.3647 42.5429L97.586 39.273Z" fill="white"/>
<path d="M59.5881 56.9262C54.9991 56.9262 54.3038 51.4674 54.3038 48.2198C54.3038 45.2831 54.8253 42.9683 55.8335 41.4827C56.7026 40.1698 57.9889 39.5134 59.5881 39.5134C61.1873 39.5134 62.5779 40.1698 63.5513 41.5172C64.6638 43.0374 65.2548 45.3522 65.2548 48.2198C65.2548 53.6786 63.1342 56.9262 59.6229 56.9262H59.5881Z" fill="white"/>
<path d="M78.4649 56.9262C73.8759 56.9262 73.1806 51.4674 73.1806 48.2198C73.1806 45.2831 73.7021 42.9683 74.7103 41.4827C75.5794 40.1698 76.8657 39.5134 78.4649 39.5134C80.0641 39.5134 81.4547 40.1698 82.4281 41.5172C83.5406 43.0374 84.1316 45.3522 84.1316 48.2198C84.1316 53.6786 82.0109 56.9262 78.4997 56.9262H78.4649Z" fill="white"/>
</svg>
