<svg width="25" height="24" viewBox="0 0 25 24" fill="none" xmlns="http://www.w3.org/2000/svg">
<path d="M12.0509 24H11.9982C5.39793 24 0.0280762 18.6286 0.0280762 12.0264V11.9736C0.0280762 5.37143 5.39793 0 11.9982 0H12.0509C18.6512 0 24.021 5.37143 24.021 11.9736V12.0264C24.021 18.6286 18.6512 24 12.0509 24ZM11.9982 0.812375C5.84541 0.812375 0.840212 5.81905 0.840212 11.9736V12.0264C0.840212 18.1809 5.84541 23.1876 11.9982 23.1876H12.0509C18.2037 23.1876 23.2089 18.1809 23.2089 12.0264V11.9736C23.2089 5.81905 18.2037 0.812375 12.0509 0.812375H11.9982Z" fill="white"/>
<path d="M5.96235 8.11325C5.65699 7.82973 5.50513 7.47879 5.50513 7.06123C5.50513 6.64367 5.6578 6.27728 5.96235 5.99294C6.26771 5.70943 6.66079 5.56726 7.14239 5.56726C7.62398 5.56726 8.00163 5.70943 8.30618 5.99294C8.61154 6.27646 8.7634 6.63311 8.7634 7.06123C8.7634 7.48935 8.61073 7.82973 8.30618 8.11325C8.00082 8.39677 7.61342 8.53893 7.14239 8.53893C6.67135 8.53893 6.26771 8.39677 5.96235 8.11325ZM8.50678 9.73963V18.432H5.76094V9.73963H8.50678Z" fill="white"/>
<path d="M17.6474 10.5984C18.246 11.2483 18.5449 12.1403 18.5449 13.276V18.2786H15.9371V13.6285C15.9371 13.0558 15.7885 12.6106 15.492 12.2938C15.1956 11.977 14.7961 11.8178 14.2958 11.8178C13.7955 11.8178 13.3959 11.9762 13.0995 12.2938C12.8031 12.6106 12.6544 13.0558 12.6544 13.6285V18.2786H10.0312V9.71534H12.6544V10.851C12.92 10.4725 13.2782 10.1735 13.7281 9.95336C14.178 9.73321 14.684 9.62354 15.2468 9.62354C16.249 9.62354 17.0497 9.94849 17.6474 10.5984Z" fill="white"/>
</svg>
