<svg width="17" height="16" viewBox="0 0 17 16" fill="none" xmlns="http://www.w3.org/2000/svg">
<path d="M12.6555 6C12.6555 3.51472 10.6408 1.5 8.15552 1.5C5.67024 1.5 3.65552 3.51472 3.65552 6C3.65552 7.88286 4.41966 10.037 5.41821 11.7304C5.91544 12.5736 6.45785 13.2801 6.96844 13.7686C7.5029 14.2799 7.91491 14.4688 8.15552 14.4688C8.26074 14.4688 8.41884 14.429 8.63275 14.3062C8.84354 14.1851 9.08174 13.9987 9.33771 13.747C9.84966 13.2437 10.3931 12.5188 10.8913 11.6626C11.8928 9.94131 12.6555 7.78706 12.6555 6ZM13.6555 6C13.6555 8.02544 12.8088 10.3556 11.7557 12.1655C11.2265 13.0749 10.6313 13.8774 10.0388 14.46C9.74249 14.7513 9.43697 14.9975 9.1308 15.1733C8.82775 15.3474 8.49561 15.4688 8.15552 15.4688C7.5055 15.4688 6.84719 15.0365 6.27716 14.4911C5.68327 13.923 5.08699 13.1373 4.55688 12.2383C3.50076 10.4473 2.65552 8.11714 2.65552 6C2.65552 2.96243 5.11795 0.5 8.15552 0.5C11.1931 0.5 13.6555 2.96243 13.6555 6Z" fill="white"/>
<path d="M9.65552 5.8125C9.65552 4.98407 8.98394 4.3125 8.15552 4.3125C7.32709 4.3125 6.65552 4.98407 6.65552 5.8125C6.65552 6.64093 7.32709 7.3125 8.15552 7.3125C8.98394 7.3125 9.65552 6.64093 9.65552 5.8125ZM10.6555 5.8125C10.6555 7.19321 9.53623 8.3125 8.15552 8.3125C6.77481 8.3125 5.65552 7.19321 5.65552 5.8125C5.65552 4.43179 6.77481 3.3125 8.15552 3.3125C9.53623 3.3125 10.6555 4.43179 10.6555 5.8125Z" fill="white"/>
</svg>
