<svg width="16" height="16" viewBox="0 0 16 16" fill="none" xmlns="http://www.w3.org/2000/svg">
<path d="M8.07535 3.23559C9.72288 1.58811 12.394 1.58814 14.0415 3.23565L14.0799 3.27441C15.689 4.92481 15.6762 7.56719 14.0415 9.20184L14.0392 9.20416L8.9553 14.1557C8.37288 14.723 7.44458 14.7229 6.86216 14.1557L1.78055 9.20648L1.77591 9.20184C0.128408 7.55432 0.128405 4.88318 1.77591 3.23565L1.81467 3.19732C3.46507 1.58821 6.10745 1.60102 7.7421 3.23565L7.90866 3.40222L8.07535 3.23559ZM13.3344 3.94275C12.0774 2.68575 10.0394 2.68575 8.78244 3.94275L7.90866 4.8164L7.03501 3.94275C5.78783 2.69558 3.77179 2.68583 2.51261 3.91351L2.48301 3.94275C1.22656 5.1992 1.22601 7.23597 2.48136 8.4931L7.55985 13.4393C7.75399 13.6284 8.0634 13.6284 8.25754 13.4393L13.3374 8.4917C14.5816 7.24429 14.5904 5.23053 13.3637 3.97235L13.3344 3.94275Z" fill="#FB008B"/>
</svg>
