<svg width="16" height="16" viewBox="0 0 16 16" fill="none" xmlns="http://www.w3.org/2000/svg">
<path d="M2.5 2C2.22386 2 2 2.22386 2 2.5L2 13.5C2 13.7761 2.22386 14 2.5 14H3C3.27614 14 3.5 13.7761 3.5 13.5L3.5 2.5C3.5 2.22386 3.27614 2 3 2H2.5ZM3 1C3.82843 1 4.5 1.67157 4.5 2.5L4.5 13.5C4.5 14.3284 3.82843 15 3 15H2.5C1.67157 15 1 14.3284 1 13.5L1 2.5C1 1.67157 1.67157 1 2.5 1L3 1Z" fill="white"/>
<path d="M6.75 2C6.47386 2 6.25 2.22386 6.25 2.5L6.25 13.5C6.25 13.7761 6.47386 14 6.75 14H7.25C7.52614 14 7.75 13.7761 7.75 13.5L7.75 2.5C7.75 2.22386 7.52614 2 7.25 2H6.75ZM7.25 1C8.07843 1 8.75 1.67157 8.75 2.5L8.75 13.5C8.75 14.3284 8.07843 15 7.25 15H6.75C5.92157 15 5.25 14.3284 5.25 13.5L5.25 2.5C5.25 1.67157 5.92157 1 6.75 1L7.25 1Z" fill="white"/>
<path d="M10.0805 2.26916C9.81381 2.34063 9.65552 2.6148 9.72699 2.88153L12.574 13.5067C12.6455 13.7734 12.9196 13.9317 13.1864 13.8603L13.6693 13.7309C13.9361 13.6594 14.0944 13.3852 14.0229 13.1185L11.1759 2.4933C11.1044 2.22657 10.8302 2.06828 10.5635 2.13975L10.0805 2.26916ZM10.3047 1.17382C11.1049 0.959411 11.9274 1.43428 12.1418 2.23448L14.9888 12.8597C15.2032 13.6599 14.7284 14.4824 13.9282 14.6968L13.4452 14.8262C12.645 15.0406 11.8225 14.5657 11.6081 13.7655L8.76106 3.14035C8.54665 2.34015 9.02152 1.51765 9.82172 1.30323L10.3047 1.17382Z" fill="white"/>
</svg>
