<svg width="17" height="16" viewBox="0 0 17 16" fill="none" xmlns="http://www.w3.org/2000/svg">
<g clip-path="url(#clip0_287_12180)">
<path d="M14.5625 5C14.5625 3.0821 13.0199 1.52452 11.1077 1.50031L11.0625 1.5H5.0625C3.1295 1.5 1.5625 3.067 1.5625 5V11L1.56281 11.0452C1.58702 12.9574 3.1446 14.5 5.0625 14.5H11.0625C12.9955 14.5 14.5625 12.933 14.5625 11V5ZM15.5625 11C15.5625 13.4853 13.5478 15.5 11.0625 15.5H5.0625C2.59664 15.5 0.594009 13.5166 0.562866 11.0582L0.5625 11V5C0.5625 2.51472 2.57722 0.5 5.0625 0.5H11.0625L11.1207 0.500366C13.5791 0.531509 15.5625 2.53414 15.5625 5V11Z" fill="white"/>
<path d="M11.75 3.75L11.7758 3.75067C12.0399 3.76408 12.25 3.9825 12.25 4.25C12.25 4.5175 12.0399 4.73592 11.7758 4.74933L11.75 4.75H4.375C4.09886 4.75 3.875 4.52614 3.875 4.25C3.875 3.97386 4.09886 3.75 4.375 3.75H11.75Z" fill="white"/>
<path d="M11.8125 7.5C12.0886 7.5 12.3125 7.72386 12.3125 8C12.3125 8.27614 12.0886 8.5 11.8125 8.5H4.3125C4.03636 8.5 3.8125 8.27614 3.8125 8C3.8125 7.72386 4.03636 7.5 4.3125 7.5H11.8125Z" fill="white"/>
<path d="M8.0625 11.25L8.08826 11.2507C8.35243 11.2641 8.5625 11.4825 8.5625 11.75C8.5625 12.0175 8.35243 12.2359 8.08826 12.2493L8.0625 12.25H4.375C4.09886 12.25 3.875 12.0261 3.875 11.75C3.875 11.4739 4.09886 11.25 4.375 11.25H8.0625Z" fill="white"/>
</g>
<defs>
<clipPath id="clip0_287_12180">
<rect width="16" height="16" fill="white" transform="translate(0.0625)"/>
</clipPath>
</defs>
</svg>
