<svg width="17" height="16" viewBox="0 0 17 16" fill="none" xmlns="http://www.w3.org/2000/svg">
<g clip-path="url(#clip0_287_11911)">
<path d="M3.93751 6.79688C3.93751 3.86286 6.316 1.48438 9.25001 1.48438C12.184 1.48438 14.5625 3.86286 14.5625 6.79688C14.5625 9.73089 12.184 12.1094 9.25001 12.1094C6.316 12.1094 3.93751 9.73089 3.93751 6.79688ZM2.93751 6.79688C2.93751 10.2832 5.76371 13.1094 9.25001 13.1094C12.7363 13.1094 15.5625 10.2832 15.5625 6.79688C15.5625 3.31058 12.7363 0.484375 9.25001 0.484375C5.76371 0.484375 2.93751 3.31058 2.93751 6.79688Z" fill="white"/>
<path d="M5.41608 10.6308C5.22692 10.4416 4.92388 10.4358 4.72761 10.6131L4.70893 10.6308L0.708932 14.6308L0.691231 14.6495C0.513889 14.8458 0.51977 15.1488 0.708932 15.338C0.898093 15.5271 1.20113 15.533 1.39741 15.3557L1.41608 15.338L5.41608 11.338L5.43378 11.3193C5.61113 11.123 5.60525 10.82 5.41608 10.6308Z" fill="white"/>
</g>
<defs>
<clipPath id="clip0_287_11911">
<rect width="16" height="16" fill="white" transform="translate(0.0625)"/>
</clipPath>
</defs>
</svg>
