<svg width="24" height="24" viewBox="0 0 24 24" fill="none" xmlns="http://www.w3.org/2000/svg">
<path d="M12.0297 24H11.9769C5.37667 24 0.00683594 18.6286 0.00683594 12.0264V11.9736C0.00683594 5.37143 5.37667 0 11.9769 0H12.0297C18.6299 0 23.9998 5.37143 23.9998 11.9736V12.0264C23.9998 18.6286 18.6299 24 12.0297 24ZM11.9769 0.812375C5.82415 0.812375 0.818972 5.81905 0.818972 11.9736V12.0264C0.818972 18.1809 5.82415 23.1876 11.9769 23.1876H12.0297C18.1824 23.1876 23.1876 18.1809 23.1876 12.0264V11.9736C23.1876 5.81905 18.1824 0.812375 12.0297 0.812375H11.9769Z" fill="white"/>
<path d="M8.38964 5.96033L5.80786 8.54287V17.8389H8.90536V20.4214L11.4871 17.8389H13.5524L18.1994 13.1905V5.96033H8.38964ZM17.1664 12.6738L15.1011 14.7396H13.0359L11.2289 16.5472V14.7396H8.90536V6.99285H17.1664V12.6738Z" fill="white"/>
<path d="M15.6169 8.80115H14.5847V11.8995H15.6169V8.80115Z" fill="white"/>
<path d="M12.7776 8.80115H11.7454V11.8995H12.7776V8.80115Z" fill="white"/>
</svg>
