<svg width="1504" height="263" viewBox="0 0 1504 263" fill="none" xmlns="http://www.w3.org/2000/svg">
<path d="M786 20C763.5 27.5 608 24.5 674 35C740 45.5 810 38 827.5 35C845 32 863 16.5 823.5 13C791.9 10.2 768.833 12.6666 768 13" stroke="#FB008B" stroke-width="5" stroke-linecap="round" stroke-linejoin="bevel"/>
<path d="M806 50.5C774 54.5 690 51.5 668.5 48C647 44.5 623.2 34.5 620 30.5C616 25.5 616.5 16.5 657.5 9.5C698.5 2.5 742 2.5 788 2.5C834 2.5 893.5 18 879.5 30.5C865.5 43 838 46.5 806 50.5Z" stroke="#FB008B" stroke-width="5" stroke-linejoin="bevel"/>
<path d="M632.5 88C633 62 636.6 25.6 647 88C660 166 690 193.5 744.5 194.5C799 195.5 835 161.5 855 136.5C875 111.5 878 59 881.5 29.5" stroke="#FB008B" stroke-width="5" stroke-linecap="round" stroke-linejoin="bevel"/>
<path d="M617 26C596.916 123.479 644.018 184.966 739.5 194.476M745.5 195C743.479 194.848 741.479 194.673 739.5 194.476M618.5 31C626.5 157.5 673.5 186.452 739.5 194.476" stroke="#FB008B" stroke-width="5" stroke-linecap="round" stroke-linejoin="bevel"/>
<path d="M675 178.5C677 209 806 203.5 836.5 183.5C867 163.5 849.5 152.5 842.5 157.5C837.29 161.222 838.638 174.373 862.5 162C889.5 148 936.5 116 938.5 80.0001C940.5 44.0001 896.5 25 873 46.5001C846.131 71.0826 859.5 100 867 85.0002C874.5 70.0002 878.5 52.5 892.5 51.0001C909.403 49.1893 929 61.5002 918 85.0002C907 108.5 880.5 125 862.5 138C844.5 151 847 164.5 881 140" stroke="#FB008B" stroke-width="5" stroke-linecap="round" stroke-linejoin="bevel"/>
<path d="M618 131C535.797 142.605 524.675 200.747 628.5 222.87M868.5 137C929.5 137 964.565 166.302 949 182C932.281 198.862 907.761 210.987 879 219.308M3 260C80.5 256.5 72 196.66 123.5 193.5C184.5 189.758 207 240 270.5 244.5C331 248.787 323.527 187.962 382 167C435 148 437.399 213.799 552 202.5C623 195.5 643.335 164.014 628.5 158C610 150.5 566.5 167 576.5 182C595.041 209.812 657.274 223.11 763 222C873.5 220.839 884.442 160.024 979 140C1021.5 131 1028.71 151.623 1081 194C1139 241 1174 178.5 1252 172C1321 166.25 1348.5 207 1406 211C1452 214.2 1488.83 199 1501.5 191M628.5 222.87C632.033 223.623 635.699 224.334 639.5 225C708.777 237.141 800.5 237.5 879 219.308M628.5 222.87C710.5 250 746.5 244.5 777.5 244.5C808.5 244.5 853.5 233.5 879 219.308" stroke="#FB008B" stroke-width="5" stroke-linecap="round" stroke-linejoin="bevel"/>
</svg>
